<?xml version="1.0"?>
<svg version="1.1" xmlns="http://www.w3.org/2000/svg" width="450px" height="200px" style="border: dashed 2px #aaa"><path fill="#3182ce" d="M208.618625,108.25q-1.25,0-2.325-0.2q0.35,1.1,1.475,4.975q0.35,1.125,1.1,2.275q1.025,1.475,1.9,1.475q1.05,0,1.75-2.125q0.125-0.5,0.2625-0.5t0.2,0.2875t0.0625,0.3875q0,0.625-0.7,1.6q-0.925,1.375-2.025,1.375t-2.025-1.1t-1.8125-4.0125t-0.8875-3.7125q0-0.125,0.025-0.2q-3,3.975-4.3,5.25q-2.9,2.825-5.925,2.825q-2.125,0-2.125-1.6q0-0.8,0.5-1.7625t1.225-1.6875t1.275-0.725q0.1,0,0.1,0.05q0,0.125-0.625,0.625t-1.2,1.4125t-0.575,1.6625q0,1.325,1.775,1.325q3.325,0,9.15-7.8q0.325-0.425,0.55-0.6l-0.4-0.15q-0.325,0.125-0.525,0.125q-0.525,0-0.525-0.425q0-0.575,0.775-0.75q0.1-0.025,0.175-0.025q0.45,0,1.05,0.45q2.2-2.45,2.25-2.5q1.825-1.875,2.4625-1.875t0.6375,0.55q0,0.25-0.1125,0.475t-0.2625,0.225q-0.15,0.05-0.15-0.15q0-0.1,0.15-0.3q0.025-0.35-0.225-0.35q-0.8,0-3.875,4.25q0.75,0.05,1.25,0.05q5.8,0,7.25-3q0.3-0.65,0.3-1.2q0-1.1-1-1.9q-1.6-1.3-5.2-1.3t-7.35,1.825q-4.55,2.225-4.55,5.225q0,0.975,1.225,0.975t2.6-0.9t1.85-1.775q0.175-0.325,0.3375-0.325t0.0875,0.2q-0.475,1.4-2.1125,2.3875t-3.4125,0.9875t-1.775-1.125l0-0.175q0.375-3.275,4.0125-5.5625t8.7625-2.2875q4.775,0,6.775,1.65q1.2,1,1.2,2.35q0,0.575-0.275,1.25q-0.775,1.825-3.175,2.7125t-5.05,0.8875z M231.322875,103.075q0,0.2-0.5125,0.2t-1.025-0.5125t-0.5125-1.25t0.45-1.3375q0.95-1.3,3.175-1.85q1.6-0.4,3.2-0.4l0.2,0q0.225,0,1.225,0.075q-0.05-0.325,0.2625-0.6125t0.7125-0.2875q0.75,0,0.725,1.075q2.7,0.475,2.85,1.45q0.025,0.225,0.025,0.375q0,0.5-0.2875,0.5t-0.1875-0.6q-0.625-0.925-2.475-1.3q-0.45,2.025-4.7,8.8q-2.825,4.45-6.575,7.45q-4.3,3.4-8.1,3.4q-2.325,0-3.45-1.175t-1.125-2.6125t0.55-2.4625q1.325-2.55,3.825-3.975q1.85-1.075,3.425-1.075q1.7,0,2.6625,0.825t0.9625,2.075q0,1.35-1,2.45q-0.625,0.7-1,0.7q-0.1,0-0.1-0.0875t0.075-0.2375q0.9-1.325,0.9-2.4625t-0.625-1.8625q-0.725-0.775-1.9625-0.775t-2.7625,1q-1.875,1.225-3.075,3.675q-0.625,1.225-0.625,2.5375t0.975,2.125t2.625,0.8125q6.35,0,13.275-11.15q4.15-6.65,4.25-8.15q-1.5-0.075-1.575-0.075q-1.175,0-3.0125,0.65t-2.3875,1.6q-0.225,0.375-0.225,0.825t0.475,1t0.475,0.65z M255.652125,104.3q-0.925,0.375-1.5875,0.375t-0.6625-0.275q0-0.175,0.7375-0.2t1.0625-0.175q0.95-0.5,0.95-1.475q0-0.5-0.275-1.05q-0.8-1.425-3.875-1.425q-1.775,0-3.55,0.5375t-2.975,1.65t-1.2,2.0625q0,1.45,2.875,2.125l2.95,0.55q1.775,0.325,2.65,0.9q1.15,0.7,1.15,2q0,0.525-0.175,1.125q-0.8,2.7-4.125,4.125q-2.775,1.225-6.55,1.225q-1.075,0-1.875-0.1q0.8,0.45,2.1,0.775q0.1,0.025,0.1,0.1q0,0.225-0.525,0.225q-1.025,0-2.55-1.225q-2.075-0.325-3.1-1.15q-0.65-0.525-1.2-1.55t-0.55-1.85t0.325-1.375q0.75-1.325,1.9-1.325q0.875,0,1.025,1.475q0.35,2.85,0.475,3.25q0.375,1.225,1.275,2.075q1.05,0.225,2.275,0.225q2.7,0,5.3-1.075t3.75-3.05q0.475-0.775,0.475-1.375q0-1.175-2.075-1.825l-4.4-1q-1.35-0.325-2.1625-1.075t-0.8125-1.725q0-1.5,1.875-3q1.425-1.15,3.4875-1.7875t4.05-0.6375t3.2875,0.575q1.675,0.775,1.675,2.2625t-1.525,2.0875z M239.552125,115.45q-1.45-1.6-1.85-4.375q-0.225-1.575-0.425-1.575t-0.375,0.1125t-0.35,0.4875t-0.175,0.975q0,1.925,1.35,3.3q0.675,0.7,1.825,1.075z"/></svg>
